<svg version="1.1" id="Layer_1" xmlns="http://www.w3.org/2000/svg" xmlns:xlink="http://www.w3.org/1999/xlink" x="0px" y="0px"
	 width="100%" viewBox="0 0 730 536" xml:space="preserve">
<path fill="#0A5493" opacity="1.000000" stroke="none" 
	d="
M435.461395,187.309830 
	C436.371674,177.547867 442.258453,172.006500 451.671112,172.009094 
	C484.969269,172.018311 518.267456,172.007294 551.565613,172.002625 
	C560.779175,172.001328 565.998474,177.149521 566.000000,186.265152 
	C566.003906,208.907928 565.595398,231.561737 566.211365,254.187759 
	C566.441589,262.646149 563.217224,267.522461 555.807739,269.866425 
	C550.895569,271.420288 549.995361,274.742096 550.000916,279.027832 
	C550.009460,285.687469 550.022156,292.347229 549.982849,299.006653 
	C549.973389,300.613129 550.538330,302.683716 548.651428,303.467560 
	C546.702271,304.277344 545.334656,302.631134 544.000977,301.426575 
	C533.224487,291.693634 522.454102,281.953949 511.659912,272.240723 
	C511.065948,271.706238 510.277130,271.388336 509.231995,270.872803 
	C490.254974,270.150574 471.619904,270.651703 452.537445,270.670654 
	C443.350525,270.929199 436.838531,265.322174 435.942505,257.003540 
	C435.824036,255.903809 435.311951,254.846481 434.906342,253.367157 
	C434.136810,248.630722 434.646271,244.268631 434.681732,239.479721 
	C434.864349,237.955704 434.892517,236.873123 434.863525,235.387405 
	C434.476532,219.194229 433.935150,203.402908 435.461395,187.309830 
z"/>
<path fill="#0A5495" opacity="1.000000" stroke="none" 
	d="
M207.927429,348.512970 
	C208.858154,342.624634 205.794205,339.924957 201.163956,338.100067 
	C194.775970,335.582397 187.942719,334.263397 181.972549,330.594757 
	C176.232498,327.067535 172.765686,318.247040 173.586884,311.567871 
	C175.354080,297.194519 184.857498,291.102600 197.224411,286.619537 
	C209.017288,282.344543 220.663971,284.082794 232.466019,285.046112 
	C232.948959,285.085510 233.439133,285.251862 233.889389,285.444489 
	C244.448502,289.961395 244.463867,289.997528 241.426743,301.174988 
	C238.797775,310.850342 238.797775,310.850769 228.699615,311.016907 
	C227.866714,311.030609 227.031311,311.077698 226.201065,311.033752 
	C222.894272,310.858826 219.100616,312.125763 216.401016,310.347900 
	C213.494385,308.433655 215.335251,304.476074 214.865311,301.447754 
	C214.008316,295.925446 210.362656,294.401550 205.848251,297.727692 
	C200.109879,301.955627 200.801147,309.427490 207.402603,312.006714 
	C211.694321,313.683563 216.249207,314.702759 220.711761,315.923096 
	C229.927429,318.443207 237.019043,323.340668 238.661407,333.377075 
	C240.343536,343.656403 237.683685,352.834656 229.470306,359.659485 
	C223.364670,364.732819 216.298035,367.396576 208.080582,367.081207 
	C199.096527,366.736450 190.088959,367.023041 181.091827,366.985352 
	C179.446381,366.978455 177.731522,366.992188 176.168243,366.562042 
	C164.548569,363.364502 163.121902,360.547058 166.964279,348.788391 
	C169.512589,340.989899 169.512604,340.986938 177.784851,340.989563 
	C181.783600,340.990814 185.784851,341.095764 189.780243,340.984344 
	C192.717270,340.902435 194.192032,342.044189 193.989624,345.071838 
	C193.956451,345.568176 194.052017,346.072632 194.024429,346.569824 
	C193.802277,350.573730 193.955261,354.962830 198.756241,355.662994 
	C203.289841,356.324219 206.400726,353.295441 207.927429,348.512970 
z"/>
<path fill="#0A5495" opacity="1.000000" stroke="none" 
	d="
M270.067474,310.001831 
	C277.086700,309.282104 283.546082,309.033386 290.247314,309.755829 
	C303.374573,311.171021 310.968536,320.840637 311.019562,332.958282 
	C311.074768,346.072296 307.079132,356.901855 294.997681,363.678955 
	C291.650055,365.556824 288.335785,367.060333 284.395508,367.018036 
	C276.730621,366.935791 269.035828,366.581726 261.405579,367.103607 
	C251.852921,367.756927 245.044189,361.059143 242.419266,353.436279 
	C238.422287,341.828888 240.446091,330.739716 248.085098,321.182373 
	C253.462631,314.454407 260.779083,310.532501 270.067474,310.001831 
z"/>
<path fill="#0A5495" opacity="1.000000" stroke="none" 
	d="
M374.907227,366.383484 
	C368.740601,367.480621 362.906158,366.958221 357.094421,366.922272 
	C352.546570,366.894165 349.990234,363.143829 348.148285,359.986542 
	C342.754364,350.740692 349.314545,338.701416 359.325836,334.631836 
	C367.926575,331.135681 376.635742,332.900146 385.176819,331.283417 
	C388.732300,330.610382 387.997467,329.011230 387.907379,327.211700 
	C387.788574,324.838593 389.278961,321.549133 384.986420,321.021240 
	C381.325439,320.571045 378.117126,322.279144 377.564178,325.375946 
	C376.743439,329.972534 373.397095,329.544403 370.705475,329.874878 
	C366.813110,330.352722 362.813171,330.076935 358.865723,329.936707 
	C356.570709,329.855164 355.223419,328.422119 355.065125,326.113281 
	C354.622314,319.656097 358.199097,315.240997 364.489288,312.636871 
	C376.624054,307.613190 389.154175,308.416931 401.508972,310.246155 
	C408.624786,311.299744 415.838776,317.582520 416.098419,327.251434 
	C416.445923,340.191498 411.482971,352.128052 409.877655,364.672974 
	C409.597778,366.859955 407.821259,366.992401 406.082977,366.993896 
	C400.253174,366.998932 394.422058,366.929108 388.594208,367.038116 
	C386.024780,367.086182 384.951263,366.003937 384.955109,363.513092 
	C384.958923,361.035248 384.087006,360.284027 382.151306,362.326355 
	C380.252228,364.330048 377.649689,365.045288 374.907227,366.383484 
z"/>
<path fill="#0A5495" opacity="1.000000" stroke="none" 
	d="
M545.435181,346.059143 
	C548.045532,346.637482 548.070068,348.302246 547.818359,350.016571 
	C547.700623,350.818604 547.156372,351.567108 547.083496,352.365234 
	C545.997620,364.259644 541.218811,365.975952 529.134216,366.908661 
	C522.186829,367.444885 515.118408,366.487610 508.183777,367.100494 
	C492.933380,368.448303 482.531738,354.642456 484.256653,341.151123 
	C486.442505,324.054474 493.132050,315.242157 510.189636,310.683960 
	C520.898071,307.822388 532.412842,307.288757 543.237122,311.713013 
	C553.893127,316.068481 554.477783,325.001465 552.282959,334.074524 
	C550.335571,342.124786 549.784241,342.007233 541.729431,342.022339 
	C533.908508,342.037018 526.082214,342.182800 518.268677,341.938782 
	C514.258301,341.813599 512.886841,343.604462 512.991577,347.229187 
	C513.006042,347.728027 512.979919,348.228302 513.002380,348.726593 
	C513.132446,351.615875 511.988495,355.848206 515.546692,356.445831 
	C518.720764,356.978973 521.499756,353.414032 522.458557,350.482544 
	C523.741760,346.559082 526.044128,345.874603 529.513123,345.968872 
	C534.667908,346.109009 539.828613,346.033722 545.435181,346.059143 
z"/>
<path fill="#0A5495" opacity="1.000000" stroke="none" 
	d="
M467.438843,335.704346 
	C461.870392,335.910980 460.510315,334.664276 461.217010,329.936981 
	C461.469574,328.247498 461.412964,326.700714 461.025085,325.110718 
	C460.700958,323.782043 461.763580,321.777802 459.796021,321.270233 
	C458.118073,320.837341 456.597931,322.003662 455.416718,323.150330 
	C452.609039,325.875793 451.235352,329.530914 450.173492,333.096588 
	C448.234467,339.607788 447.566223,346.357513 448.017883,353.185638 
	C448.108398,354.553619 448.075623,355.952820 449.446594,356.661896 
	C451.017151,357.474213 451.636993,356.004303 452.674469,355.247437 
	C455.374756,353.277374 457.689545,351.210327 458.174622,347.635468 
	C458.692566,343.818390 465.841492,342.595581 469.625244,343.409271 
	C471.280304,343.765228 472.873474,344.010620 474.518188,343.925995 
	C479.676941,343.660645 480.888306,344.856934 479.954712,349.772339 
	C479.312561,353.153442 478.418274,356.487610 477.605164,359.835114 
	C476.401642,364.789642 472.679626,366.799133 468.134766,366.916809 
	C458.476074,367.166931 448.806335,366.980774 439.141144,366.994019 
	C431.466278,367.004547 420.171967,357.861603 419.818817,348.369476 
	C419.555206,341.283539 419.630890,334.684784 422.459229,327.949738 
	C425.348083,321.070618 430.477112,316.299164 436.542755,313.511139 
	C448.990875,307.789398 462.338196,307.503662 475.532349,311.141693 
	C482.716919,313.122711 487.805511,317.474274 483.508850,326.154572 
	C482.745392,327.696899 483.136658,329.769348 482.668823,331.509399 
	C482.007629,333.968567 480.923706,336.213959 477.342041,335.988190 
	C473.935547,334.987061 470.841187,335.710907 467.438843,335.704346 
z"/>
<path fill="#0A5495" opacity="1.000000" stroke="none" 
	d="
M346.909698,278.746887 
	C349.058136,278.748230 350.722900,278.721741 352.386353,278.756561 
	C356.105743,278.834412 357.489807,281.059296 356.791931,284.350403 
	C352.061066,306.660187 347.203308,328.943024 342.403839,351.238281 
	C341.576202,355.083130 340.700317,358.925201 340.090515,362.806854 
	C339.626495,365.760620 338.331696,367.118347 335.184723,367.047699 
	C328.198761,366.890839 321.201569,366.837189 314.219391,367.063538 
	C310.215515,367.193329 309.878693,365.244385 310.557861,362.153656 
	C312.383118,353.847046 314.188934,345.536041 315.969971,337.219818 
	C319.537659,320.561279 323.161896,303.921173 326.307770,287.166809 
	C327.634705,280.099579 329.008820,278.143005 336.443604,278.704681 
	C339.753082,278.954712 343.097076,278.746887 346.909698,278.746887 
z"/>
<path fill="#0A5495" opacity="1.000000" stroke="none" 
	d="
M452.543335,270.881927 
	C455.141235,269.791534 458.309631,269.952484 461.447479,270.012695 
	C477.002075,270.311218 492.572205,269.300598 508.499878,270.670471 
	C490.256470,270.832306 471.627960,270.888641 452.543335,270.881927 
z"/>
<path fill="#0000FF" opacity="1.000000" stroke="none" 
	d="
M435.411621,187.036530 
	C434.713715,188.799164 434.936157,190.812668 434.933929,192.784515 
	C434.918365,206.540695 434.911621,220.296860 434.854187,234.518646 
	C434.543701,234.428131 434.053253,233.872681 434.051575,233.315750 
	C434.006927,218.564240 434.010498,203.812546 434.016205,189.060883 
	C434.016510,188.261612 433.930267,187.375122 435.411621,187.036530 
z"/>
<path fill="#0000FF" opacity="1.000000" stroke="none" 
	d="
M434.497162,239.286804 
	C434.856720,243.372940 434.877258,247.707611 434.864136,252.503540 
	C433.111237,248.563171 434.267670,244.017548 434.497162,239.286804 
z"/>
<path fill="#0A5493" opacity="1.000000" stroke="none" 
	d="
M467.530579,335.921448 
	C470.117065,334.846344 473.161438,334.765320 476.587769,335.834778 
	C473.958252,335.964935 470.965027,335.968689 467.530579,335.921448 
z"/>
<path fill="#FFFFFF" opacity="1.000000" stroke="none" 
	d="
M556.476074,246.508835 
	C558.103027,250.264145 556.201050,253.370178 555.530396,256.464508 
	C554.993835,258.940002 552.470825,258.942902 550.207458,258.980438 
	C539.035461,259.165619 539.036011,259.203918 539.036011,270.604553 
	C539.035950,273.695679 539.036011,276.786804 539.036011,280.754517 
	C531.533752,275.801056 526.400330,269.540710 520.132202,264.654785 
	C516.996033,262.210236 514.554932,258.361694 509.296844,259.130157 
	C498.179596,259.957489 487.452545,259.343414 476.733398,259.476654 
	C468.805420,259.575226 460.874634,259.540741 452.490540,259.282776 
	C448.363647,258.916107 446.530640,257.030212 447.044373,253.336365 
	C447.624969,249.161758 445.752228,245.222229 446.129395,240.673660 
	C446.834290,237.024185 446.394592,233.766006 446.314453,230.134613 
	C446.147491,229.414627 446.110596,229.080734 446.127625,228.499207 
	C446.939789,215.129883 446.234772,201.994537 446.806122,188.462341 
	C447.326691,184.326431 449.561859,182.994431 453.040222,182.996384 
	C485.014618,183.014359 516.989014,183.013016 548.963379,183.005463 
	C554.619446,183.004120 557.762207,186.728424 556.728027,195.241333 
	C555.597046,204.551285 556.273438,213.777145 555.875427,223.028259 
	C555.718018,226.685638 555.828613,230.354553 555.864258,234.553345 
	C557.172729,238.704987 556.192078,242.440872 556.476074,246.508835 
z"/>
<path fill="#0A5495" opacity="1.000000" stroke="none" 
	d="
M452.424225,259.220337 
	C470.687714,259.061096 489.339569,259.025421 508.441284,259.068604 
	C506.502380,260.024719 504.008240,260.005280 501.518311,260.005615 
	C487.419250,260.007538 473.320068,260.033081 459.221252,259.975311 
	C457.084229,259.966553 454.948761,259.564209 452.424225,259.220337 
z"/>
<path fill="#0A5495" opacity="1.000000" stroke="none" 
	d="
M446.913879,188.435028 
	C447.295227,201.293549 447.543945,214.531158 446.557709,228.008789 
	C446.188934,215.102982 445.154297,201.938965 446.913879,188.435028 
z"/>
<path fill="#0A5495" opacity="1.000000" stroke="none" 
	d="
M556.563721,246.492828 
	C554.891968,243.264084 556.113342,239.447113 555.837891,235.407715 
	C557.816345,238.636581 556.839539,242.384506 556.563721,246.492828 
z"/>
<path fill="#0A5495" opacity="1.000000" stroke="none" 
	d="
M446.152252,230.224731 
	C448.348083,232.953461 447.032562,236.415100 446.556763,240.020706 
	C446.165649,237.069504 446.142853,233.885223 446.152252,230.224731 
z"/>
<path fill="#FFFFFF" opacity="1.000000" stroke="none" 
	d="
M274.981873,325.117523 
	C276.246857,322.774933 278.091980,321.853851 280.736481,321.167572 
	C281.234406,333.060822 282.381165,344.723938 274.629578,354.970032 
	C272.006073,358.437775 270.959106,357.016571 269.892761,353.912750 
	C267.718994,347.585449 270.612457,341.655670 271.372955,335.597015 
	C271.808014,332.130981 272.740540,328.515747 274.981873,325.117523 
z"/>
<path fill="#FFFFFF" opacity="1.000000" stroke="none" 
	d="
M380.585449,341.266052 
	C383.915894,340.537964 385.090668,341.577972 385.039337,344.733643 
	C384.963104,349.420959 381.930084,351.959106 378.418060,353.545593 
	C375.863129,354.699738 374.067139,352.410858 374.120758,349.805298 
	C374.204010,345.755859 376.314453,342.857483 380.585449,341.266052 
z"/>
<path fill="#FFFFFF" opacity="1.000000" stroke="none" 
	d="
M526.440979,331.881104 
	C523.043823,333.958496 519.754700,332.313568 516.189026,333.081421 
	C516.995972,329.144775 518.901978,326.374054 520.734680,323.520660 
	C521.842590,321.795776 523.591797,320.287964 525.013000,321.399780 
	C526.332214,322.431824 528.467346,324.802032 527.341309,326.557312 
	C526.144714,328.422668 527.344482,330.012299 526.440979,331.881104 
z"/>
<path fill="#0A5495" opacity="1.000000" stroke="none" 
	d="
M477.675964,195.472748 
	C478.439331,191.652100 480.606628,192.819077 482.231201,193.734726 
	C495.428131,201.172729 509.069122,207.831619 521.749390,216.177765 
	C522.024963,216.359177 522.266113,216.648361 522.565918,216.729050 
	C525.137085,217.421158 528.537415,218.071915 528.539001,220.988815 
	C528.540771,224.214767 524.718384,225.615036 522.326233,226.787552 
	C509.271118,233.186615 497.121460,241.198059 484.167816,247.744583 
	C482.344452,248.666092 480.537231,251.202332 477.963074,248.294830 
	C477.139709,230.645142 477.652832,213.291168 477.675964,195.472748 
z"/>
<path fill="#000000" opacity="1.000000" stroke="none" 
	d="
M477.490845,195.266251 
	C477.859528,212.358215 477.892395,229.711456 477.859100,247.528900 
	C476.920685,247.485901 477.007812,246.622345 477.009949,245.811462 
	C477.054169,229.050140 477.105286,212.288834 477.490845,195.266251 
z"/>
<path fill="#FFFFFF" opacity="1.000000" stroke="none" 
	d="
M503.254120,218.687012 
	C506.856110,219.880478 507.772339,221.181198 504.213379,223.251541 
	C500.553284,225.380722 497.032349,227.766327 493.284271,229.720886 
	C490.957245,230.934402 488.671021,231.485718 488.938293,227.170593 
	C489.260681,221.964859 489.014587,216.723907 489.014587,210.746750 
	C494.191010,213.620331 498.570892,216.051743 503.254120,218.687012 
z"/>
</svg>